<svg width="80" height="81" viewBox="0 0 80 81" fill="none" xmlns="http://www.w3.org/2000/svg">
<path d="M43.7517 8.0874C44.7126 7.98445 45.8261 8.18498 46.7517 8.44775C48.8458 9.04219 50.5466 10.3152 51.5564 12.1323C52.6058 13.995 52.8072 16.1729 52.115 18.1753C51.2361 20.6446 49.3518 21.8856 46.9978 23.0269L47.0242 30.229C48.7065 30.7069 50.3433 31.2488 51.8708 32.0737C55.3816 33.9699 57.783 37.167 58.7898 40.8052C59.854 44.6203 59.2489 48.6743 57.1072 52.0747C55.1428 55.1569 52.0103 57.4332 48.2605 58.3052C43.3621 59.4456 39.208 58.2107 34.9978 55.8784C33.1368 57.7325 31.2979 59.6076 29.4832 61.5024C30.2945 63.2857 30.5632 65.1564 30.0251 67.0513C29.4993 68.9038 28.1061 70.4908 26.324 71.4292C24.3271 72.4822 22.0523 72.6741 19.863 72.0903C17.6904 71.511 15.8643 70.2569 14.8025 68.3726C13.7575 66.5201 13.6689 64.3493 14.3464 62.3716C15.1173 60.1237 16.6877 58.7388 18.8953 57.7114C21.2712 56.8455 23.2352 57.1303 25.5544 57.9087C27.4855 56.0153 29.3037 54.0267 31.2546 52.1499C29.1105 48.2321 28.4162 44.8948 29.531 40.5776C27.1036 39.5217 24.7627 38.2926 22.3337 37.2349C21.0359 38.4937 19.4497 39.3568 17.5867 39.6489C15.3649 39.9974 13.0223 39.4327 11.196 38.2173C9.3867 36.9959 8.19637 35.1347 7.90405 33.0708C7.60402 31.0694 8.16903 28.8632 9.54468 27.2837C10.9632 25.6547 13.1655 24.6725 15.3884 24.4556C17.5725 24.2574 19.7514 24.8781 21.4431 26.1802C23.6062 27.8683 24.2306 29.9664 24.4929 32.4673C26.7952 33.7825 29.4319 34.7969 31.8308 35.9712C34.9519 32.5333 37.2319 31.4487 41.781 30.1421L41.7849 22.9946C40.9705 22.691 40.1576 22.3215 39.448 21.8354C37.6532 20.5984 36.4753 18.7348 36.1843 16.6724C35.9152 14.6205 36.5362 12.5527 37.9109 10.9302C39.4133 9.17411 41.4221 8.37465 43.7517 8.0874ZM53.78 43.6431C53.3171 38.7261 48.6816 35.0801 43.4021 35.48C38.075 35.8837 34.118 40.2503 34.5847 45.2104C35.0517 50.1724 39.7643 53.8309 45.0857 53.3647C50.3594 52.9014 54.2428 48.5596 53.78 43.6431Z" fill="white"/>
<path d="M69.043 31.7021C69.2682 31.6917 69.4868 31.6887 69.7109 31.7189C70.4112 31.8135 71.1012 32.1286 71.4869 32.7015C71.8961 33.3093 71.9521 34.1187 72.0081 34.8228C72.2858 38.3074 72.0795 41.9326 72.0786 45.4296C72.0778 48.2855 72.4175 52.1582 71.8483 54.9085C71.6692 55.7729 71.054 56.1863 70.3172 56.654C70.0366 56.6857 69.7429 56.7219 69.4599 56.7068C68.8276 56.6736 68.2287 56.4111 67.8198 55.9615C67.4155 55.5165 67.4272 54.6233 67.3914 54.0651C67.1345 50.0566 67.3517 45.9199 67.3556 41.8994C67.3579 39.6147 67.0208 35.2411 67.5363 33.2022C67.7207 32.4727 68.4264 32.0904 69.043 31.7021Z" fill="white"/>
<path d="M62.5887 37.3008C63.3475 37.4311 64.0188 37.6968 64.461 38.3108C65.143 39.2581 65.1614 48.5389 64.8198 49.8635C64.6329 50.5876 63.9605 50.9406 63.323 51.2891C62.593 51.2484 61.6333 51.188 61.1457 50.5982C60.4202 49.7216 60.4803 39.8579 60.8933 38.621C61.1333 37.9023 61.9263 37.5984 62.5887 37.3008Z" fill="white"/>
</svg>
